<svg xmlns="http://www.w3.org/2000/svg" xmlns:xlink="http://www.w3.org/1999/xlink" width="48" zoomAndPan="magnify" viewBox="0 0 36 36.000001" height="48" preserveAspectRatio="xMidYMid meet" version="1.0"><defs><clipPath id="id1"><path d="M 3.765625 2.703125 L 32.226562 2.703125 L 32.226562 32.625 L 3.765625 32.625 Z M 3.765625 2.703125 " clip-rule="nonzero"/></clipPath></defs><g clip-path="url(#id1)"><path fill="rgb(100%, 100%, 100%)" d="M 32.160156 23.449219 L 23.984375 2.914062 C 23.902344 2.714844 23.621094 2.714844 23.539062 2.914062 L 20.59375 10.308594 C 20.574219 10.367188 20.570312 10.429688 20.59375 10.488281 L 25.808594 23.628906 C 25.84375 23.722656 25.933594 23.78125 26.03125 23.78125 L 31.9375 23.78125 C 32.105469 23.78125 32.222656 23.609375 32.160156 23.449219 Z M 12.449219 2.914062 L 21.160156 24.839844 C 21.183594 24.894531 21.183594 24.960938 21.160156 25.019531 L 18.214844 32.414062 C 18.132812 32.617188 17.851562 32.617188 17.769531 32.414062 L 12.449219 19.046875 C 12.367188 18.84375 12.085938 18.84375 12.003906 19.046875 L 10.179688 23.628906 C 10.140625 23.722656 10.054688 23.78125 9.957031 23.78125 L 4.050781 23.78125 C 3.878906 23.78125 3.765625 23.605469 3.828125 23.449219 L 12.003906 2.914062 C 12.085938 2.714844 12.371094 2.714844 12.449219 2.914062 " fill-opacity="1" fill-rule="nonzero"/></g></svg>